<svg width="850" height="295" viewBox="0 0 850 295" fill="none" xmlns="http://www.w3.org/2000/svg">
<rect width="850" height="295" rx="10" fill="#F8F8F8"/>
<path d="M487.5 56H367.5C361.977 56 357.5 60.4772 357.5 66V186C357.5 191.523 361.977 196 367.5 196H487.5C493.023 196 497.5 191.523 497.5 186V66C497.5 60.4772 493.023 56 487.5 56Z" fill="url(#paint0_linear_17_6248)"/>
<g filter="url(#filter0_d_17_6248)">
<path d="M379.5 110H514.5C515.826 110 517.098 110.527 518.036 111.464C518.973 112.402 519.5 113.674 519.5 115V140C519.5 141.326 518.973 142.598 518.036 143.536C517.098 144.473 515.826 145 514.5 145H379.5C378.174 145 376.902 144.473 375.964 143.536C375.027 142.598 374.5 141.326 374.5 140V115C374.5 113.674 375.027 112.402 375.964 111.464C376.902 110.527 378.174 110 379.5 110V110Z" fill="white"/>
</g>
<path d="M453.5 118H427.5C425.843 118 424.5 119.343 424.5 121C424.5 122.657 425.843 124 427.5 124H453.5C455.157 124 456.5 122.657 456.5 121C456.5 119.343 455.157 118 453.5 118Z" fill="#C7B2FF"/>
<path d="M471.5 131H427.5C425.843 131 424.5 132.343 424.5 134C424.5 135.657 425.843 137 427.5 137H471.5C473.157 137 474.5 135.657 474.5 134C474.5 132.343 473.157 131 471.5 131Z" fill="#ECE4FF"/>
<path d="M405 137C410.247 137 414.5 132.747 414.5 127.5C414.5 122.253 410.247 118 405 118C399.753 118 395.5 122.253 395.5 127.5C395.5 132.747 399.753 137 405 137Z" fill="#8A5CFF"/>
<path d="M404.203 130H404.987L403.167 125.177H402.362L400.542 130H401.333L401.795 128.796H403.741L404.203 130ZM402.768 126.108L403.489 128.131H402.047L402.768 126.108ZM407.587 125.863C408.112 125.863 408.329 126.304 408.329 126.71C408.329 127.123 408.091 127.55 407.559 127.55H406.411V125.863H407.587ZM405.662 130H406.411V128.229H407.601C408.637 128.229 409.071 127.473 409.071 126.71C409.071 125.947 408.637 125.177 407.601 125.177H405.662V130Z" fill="white"/>
<g filter="url(#filter1_d_17_6248)">
<path d="M336.5 153H471.5C472.826 153 474.098 153.527 475.036 154.464C475.973 155.402 476.5 156.674 476.5 158V183C476.5 184.326 475.973 185.598 475.036 186.536C474.098 187.473 472.826 188 471.5 188H336.5C335.174 188 333.902 187.473 332.964 186.536C332.027 185.598 331.5 184.326 331.5 183V158C331.5 156.674 332.027 155.402 332.964 154.464C333.902 153.527 335.174 153 336.5 153V153Z" fill="white"/>
</g>
<path d="M410.5 161H384.5C382.843 161 381.5 162.343 381.5 164C381.5 165.657 382.843 167 384.5 167H410.5C412.157 167 413.5 165.657 413.5 164C413.5 162.343 412.157 161 410.5 161Z" fill="#C7B2FF"/>
<path d="M428.5 174H384.5C382.843 174 381.5 175.343 381.5 177C381.5 178.657 382.843 180 384.5 180H428.5C430.157 180 431.5 178.657 431.5 177C431.5 175.343 430.157 174 428.5 174Z" fill="#ECE4FF"/>
<path d="M349 180C354.247 180 358.5 175.747 358.5 170.5C358.5 165.253 354.247 161 349 161C343.753 161 339.5 165.253 339.5 170.5C339.5 175.747 343.753 180 349 180Z" fill="#8A5CFF"/>
<path d="M345.423 173.631C346.515 173.631 346.928 172.91 346.928 172.056V167.177H346.207V172.056C346.207 172.532 345.99 172.938 345.423 172.938C345.367 172.938 345.052 172.924 344.933 172.882L344.863 173.554C345.045 173.596 345.29 173.631 345.423 173.631ZM349.643 172.07C350.616 172.07 351.274 171.433 351.274 170.628C351.274 169.921 350.763 169.48 349.951 169.277L349.342 169.123C348.733 168.969 348.684 168.647 348.684 168.493C348.684 168.052 349.09 167.779 349.545 167.779C350.042 167.779 350.399 168.087 350.399 168.542H351.113C351.113 167.667 350.434 167.121 349.566 167.121C348.712 167.121 347.963 167.66 347.963 168.507C347.963 168.906 348.131 169.515 349.16 169.774L349.776 169.928C350.168 170.033 350.553 170.236 350.553 170.663C350.553 171.062 350.217 171.412 349.643 171.412C349.041 171.412 348.656 171.013 348.642 170.6H347.928C347.928 171.377 348.614 172.07 349.643 172.07Z" fill="white"/>
<g filter="url(#filter2_d_17_6248)">
<path d="M471.5 67H336.5C333.739 67 331.5 69.2386 331.5 72V97C331.5 99.7614 333.739 102 336.5 102H471.5C474.261 102 476.5 99.7614 476.5 97V72C476.5 69.2386 474.261 67 471.5 67Z" fill="white"/>
</g>
<path d="M408.5 75H382.5C380.843 75 379.5 76.3431 379.5 78C379.5 79.6569 380.843 81 382.5 81H408.5C410.157 81 411.5 79.6569 411.5 78C411.5 76.3431 410.157 75 408.5 75Z" fill="#C7B2FF"/>
<path d="M426.5 88H382.5C380.843 88 379.5 89.3431 379.5 91C379.5 92.6569 380.843 94 382.5 94H426.5C428.157 94 429.5 92.6569 429.5 91C429.5 89.3431 428.157 88 426.5 88Z" fill="#ECE4FF"/>
<path d="M362 94C367.247 94 371.5 89.7467 371.5 84.5C371.5 79.2533 367.247 75 362 75C356.753 75 352.5 79.2533 352.5 84.5C352.5 89.7467 356.753 94 362 94Z" fill="#8A5CFF"/>
<path d="M357.325 84.6C357.325 85.384 358.025 86.07 359.026 86.07C359.943 86.07 360.594 85.531 360.671 84.775C360.748 84.075 360.349 83.536 359.369 83.277L358.753 83.116C358.179 82.969 358.109 82.675 358.109 82.486C358.109 82.094 358.494 81.821 358.942 81.821C359.446 81.821 359.782 82.101 359.782 82.549H360.524C360.524 81.667 359.852 81.121 358.956 81.121C358.109 81.121 357.367 81.674 357.367 82.5C357.367 82.927 357.528 83.515 358.564 83.795L359.173 83.949C359.621 84.054 359.964 84.285 359.936 84.733C359.887 85.09 359.593 85.391 359.026 85.391C358.445 85.391 358.088 84.992 358.067 84.6H357.325ZM362.366 81.87H363.5C364.445 81.87 364.928 82.647 364.928 83.599C364.928 84.558 364.445 85.314 363.5 85.314H362.366V81.87ZM363.5 86C364.872 86 365.67 84.971 365.67 83.599C365.67 82.227 364.872 81.177 363.5 81.177H361.624V86H363.5Z" fill="white"/>
<path d="M284.979 235H283.348L287.012 224.818H288.787L292.451 235H290.82L287.942 226.668H287.862L284.979 235ZM285.252 231.013H290.542V232.305H285.252V231.013ZM296.538 235.149C295.921 235.149 295.371 234.992 294.887 234.677C294.406 234.359 294.029 233.906 293.754 233.32C293.482 232.73 293.346 232.022 293.346 231.197C293.346 230.371 293.483 229.665 293.759 229.079C294.037 228.492 294.418 228.043 294.902 227.732C295.386 227.42 295.934 227.264 296.548 227.264C297.022 227.264 297.403 227.344 297.691 227.503C297.983 227.659 298.208 227.841 298.367 228.05C298.53 228.259 298.656 228.442 298.745 228.602H298.835V224.818H300.321V235H298.869V233.812H298.745C298.656 233.974 298.526 234.16 298.357 234.369C298.192 234.577 297.963 234.76 297.671 234.915C297.379 235.071 297.002 235.149 296.538 235.149ZM296.866 233.881C297.293 233.881 297.655 233.769 297.95 233.543C298.248 233.315 298.473 232.998 298.626 232.594C298.781 232.189 298.859 231.719 298.859 231.182C298.859 230.652 298.783 230.187 298.631 229.79C298.478 229.392 298.254 229.082 297.96 228.86C297.665 228.638 297.3 228.527 296.866 228.527C296.418 228.527 296.045 228.643 295.747 228.875C295.449 229.107 295.223 229.424 295.071 229.825C294.922 230.226 294.847 230.678 294.847 231.182C294.847 231.692 294.924 232.151 295.076 232.559C295.228 232.967 295.454 233.29 295.752 233.528C296.054 233.764 296.425 233.881 296.866 233.881ZM305.301 235.149C304.685 235.149 304.135 234.992 303.651 234.677C303.17 234.359 302.792 233.906 302.517 233.32C302.245 232.73 302.11 232.022 302.11 231.197C302.11 230.371 302.247 229.665 302.522 229.079C302.801 228.492 303.182 228.043 303.666 227.732C304.15 227.42 304.698 227.264 305.311 227.264C305.785 227.264 306.166 227.344 306.455 227.503C306.746 227.659 306.972 227.841 307.131 228.05C307.293 228.259 307.419 228.442 307.509 228.602H307.598V224.818H309.085V235H307.633V233.812H307.509C307.419 233.974 307.29 234.16 307.121 234.369C306.955 234.577 306.727 234.76 306.435 234.915C306.143 235.071 305.765 235.149 305.301 235.149ZM305.629 233.881C306.057 233.881 306.418 233.769 306.713 233.543C307.012 233.315 307.237 232.998 307.389 232.594C307.545 232.189 307.623 231.719 307.623 231.182C307.623 230.652 307.547 230.187 307.394 229.79C307.242 229.392 307.018 229.082 306.723 228.86C306.428 228.638 306.064 228.527 305.629 228.527C305.182 228.527 304.809 228.643 304.511 228.875C304.213 229.107 303.987 229.424 303.835 229.825C303.686 230.226 303.611 230.678 303.611 231.182C303.611 231.692 303.687 232.151 303.84 232.559C303.992 232.967 304.218 233.29 304.516 233.528C304.817 233.764 305.189 233.881 305.629 233.881ZM317.134 235.169C316.65 235.169 316.212 235.08 315.821 234.901C315.43 234.718 315.12 234.455 314.892 234.11C314.666 233.765 314.553 233.343 314.553 232.842C314.553 232.411 314.636 232.057 314.802 231.778C314.968 231.5 315.191 231.28 315.473 231.117C315.755 230.955 316.07 230.832 316.418 230.749C316.766 230.666 317.12 230.603 317.482 230.56C317.939 230.507 318.31 230.464 318.595 230.431C318.88 230.395 319.088 230.337 319.217 230.257C319.346 230.178 319.411 230.048 319.411 229.869V229.835C319.411 229.4 319.288 229.064 319.043 228.825C318.801 228.587 318.44 228.467 317.959 228.467C317.459 228.467 317.064 228.578 316.776 228.8C316.491 229.019 316.294 229.263 316.184 229.531L314.787 229.213C314.953 228.749 315.195 228.375 315.513 228.089C315.834 227.801 316.204 227.592 316.622 227.463C317.039 227.33 317.478 227.264 317.939 227.264C318.244 227.264 318.567 227.301 318.909 227.374C319.253 227.443 319.575 227.572 319.873 227.761C320.175 227.95 320.422 228.22 320.614 228.572C320.806 228.92 320.902 229.372 320.902 229.929V235H319.45V233.956H319.391C319.295 234.148 319.151 234.337 318.958 234.523C318.766 234.708 318.519 234.862 318.218 234.985C317.916 235.108 317.555 235.169 317.134 235.169ZM317.457 233.976C317.868 233.976 318.219 233.895 318.511 233.732C318.806 233.57 319.03 233.358 319.182 233.096C319.338 232.831 319.416 232.547 319.416 232.246V231.261C319.363 231.314 319.26 231.364 319.107 231.411C318.958 231.454 318.788 231.492 318.595 231.525C318.403 231.555 318.216 231.583 318.034 231.609C317.851 231.633 317.699 231.652 317.576 231.669C317.288 231.705 317.024 231.767 316.786 231.853C316.55 231.939 316.361 232.063 316.219 232.226C316.08 232.385 316.01 232.597 316.01 232.862C316.01 233.23 316.146 233.509 316.418 233.697C316.69 233.883 317.036 233.976 317.457 233.976ZM324.369 230.466V235H322.882V227.364H324.309V228.607H324.403C324.579 228.202 324.854 227.877 325.229 227.632C325.607 227.387 326.082 227.264 326.656 227.264C327.176 227.264 327.632 227.374 328.023 227.592C328.414 227.808 328.717 228.129 328.933 228.557C329.148 228.984 329.256 229.513 329.256 230.143V235H327.769V230.322C327.769 229.768 327.625 229.336 327.337 229.024C327.048 228.709 326.652 228.552 326.148 228.552C325.804 228.552 325.497 228.626 325.229 228.776C324.964 228.925 324.753 229.143 324.597 229.432C324.445 229.717 324.369 230.062 324.369 230.466ZM337.177 235.169C336.693 235.169 336.255 235.08 335.864 234.901C335.473 234.718 335.163 234.455 334.934 234.11C334.709 233.765 334.596 233.343 334.596 232.842C334.596 232.411 334.679 232.057 334.845 231.778C335.011 231.5 335.234 231.28 335.516 231.117C335.798 230.955 336.113 230.832 336.461 230.749C336.809 230.666 337.163 230.603 337.525 230.56C337.982 230.507 338.353 230.464 338.638 230.431C338.923 230.395 339.131 230.337 339.26 230.257C339.389 230.178 339.454 230.048 339.454 229.869V229.835C339.454 229.4 339.331 229.064 339.086 228.825C338.844 228.587 338.483 228.467 338.002 228.467C337.501 228.467 337.107 228.578 336.819 228.8C336.534 229.019 336.336 229.263 336.227 229.531L334.83 229.213C334.996 228.749 335.238 228.375 335.556 228.089C335.877 227.801 336.247 227.592 336.665 227.463C337.082 227.33 337.521 227.264 337.982 227.264C338.287 227.264 338.61 227.301 338.952 227.374C339.296 227.443 339.618 227.572 339.916 227.761C340.218 227.95 340.465 228.22 340.657 228.572C340.849 228.92 340.945 229.372 340.945 229.929V235H339.493V233.956H339.434C339.338 234.148 339.193 234.337 339.001 234.523C338.809 234.708 338.562 234.862 338.26 234.985C337.959 235.108 337.598 235.169 337.177 235.169ZM337.5 233.976C337.911 233.976 338.262 233.895 338.554 233.732C338.849 233.57 339.073 233.358 339.225 233.096C339.381 232.831 339.459 232.547 339.459 232.246V231.261C339.406 231.314 339.303 231.364 339.15 231.411C339.001 231.454 338.831 231.492 338.638 231.525C338.446 231.555 338.259 231.583 338.077 231.609C337.894 231.633 337.742 231.652 337.619 231.669C337.331 231.705 337.067 231.767 336.829 231.853C336.593 231.939 336.404 232.063 336.262 232.226C336.123 232.385 336.053 232.597 336.053 232.862C336.053 233.23 336.189 233.509 336.461 233.697C336.733 233.883 337.079 233.976 337.5 233.976ZM346.559 227.364V228.557H342.244V227.364H346.559ZM343.427 235V226.479C343.427 226.001 343.532 225.605 343.74 225.29C343.949 224.972 344.226 224.735 344.571 224.58C344.915 224.42 345.29 224.341 345.694 224.341C345.993 224.341 346.248 224.366 346.46 224.415C346.672 224.462 346.829 224.505 346.932 224.545L346.584 225.748C346.515 225.728 346.425 225.705 346.316 225.678C346.206 225.648 346.074 225.634 345.918 225.634C345.557 225.634 345.298 225.723 345.142 225.902C344.99 226.081 344.914 226.339 344.914 226.678V235H343.427ZM351.727 227.364V228.557H347.412V227.364H351.727ZM348.595 235V226.479C348.595 226.001 348.7 225.605 348.908 225.29C349.117 224.972 349.394 224.735 349.739 224.58C350.083 224.42 350.458 224.341 350.862 224.341C351.161 224.341 351.416 224.366 351.628 224.415C351.84 224.462 351.997 224.505 352.1 224.545L351.752 225.748C351.683 225.728 351.593 225.705 351.484 225.678C351.374 225.648 351.242 225.634 351.086 225.634C350.725 225.634 350.466 225.723 350.31 225.902C350.158 226.081 350.082 226.339 350.082 226.678V235H348.595ZM353.261 235V227.364H354.748V235H353.261ZM354.012 226.185C353.753 226.185 353.531 226.099 353.346 225.927C353.163 225.751 353.072 225.542 353.072 225.3C353.072 225.055 353.163 224.846 353.346 224.674C353.531 224.498 353.753 224.411 354.012 224.411C354.27 224.411 354.491 224.498 354.673 224.674C354.859 224.846 354.951 225.055 354.951 225.3C354.951 225.542 354.859 225.751 354.673 225.927C354.491 226.099 354.27 226.185 354.012 226.185ZM356.747 235V227.364H358.184V228.577H358.264C358.403 228.166 358.648 227.843 358.999 227.607C359.354 227.369 359.755 227.249 360.203 227.249C360.295 227.249 360.405 227.253 360.531 227.259C360.66 227.266 360.761 227.274 360.834 227.284V228.706C360.774 228.689 360.668 228.671 360.516 228.651C360.363 228.628 360.211 228.616 360.058 228.616C359.707 228.616 359.394 228.691 359.119 228.84C358.847 228.986 358.632 229.19 358.472 229.452C358.313 229.71 358.234 230.005 358.234 230.337V235H356.747ZM362.12 235V227.364H363.547V228.607H363.642C363.801 228.186 364.061 227.857 364.422 227.622C364.783 227.384 365.216 227.264 365.72 227.264C366.23 227.264 366.658 227.384 367.002 227.622C367.35 227.861 367.607 228.189 367.773 228.607H367.853C368.035 228.199 368.325 227.874 368.723 227.632C369.12 227.387 369.594 227.264 370.145 227.264C370.837 227.264 371.402 227.481 371.84 227.915C372.281 228.35 372.501 229.004 372.501 229.879V235H371.015V230.018C371.015 229.501 370.874 229.127 370.592 228.895C370.31 228.663 369.974 228.547 369.583 228.547C369.099 228.547 368.723 228.696 368.454 228.994C368.186 229.289 368.051 229.669 368.051 230.133V235H366.57V229.924C366.57 229.51 366.441 229.177 366.182 228.925C365.924 228.673 365.587 228.547 365.173 228.547C364.891 228.547 364.631 228.621 364.392 228.771C364.157 228.916 363.967 229.12 363.821 229.382C363.678 229.644 363.607 229.947 363.607 230.292V235H362.12ZM376.716 235.169C376.232 235.169 375.794 235.08 375.403 234.901C375.012 234.718 374.702 234.455 374.474 234.11C374.248 233.765 374.135 233.343 374.135 232.842C374.135 232.411 374.218 232.057 374.384 231.778C374.55 231.5 374.773 231.28 375.055 231.117C375.337 230.955 375.652 230.832 376 230.749C376.348 230.666 376.702 230.603 377.064 230.56C377.521 230.507 377.892 230.464 378.177 230.431C378.462 230.395 378.67 230.337 378.799 230.257C378.928 230.178 378.993 230.048 378.993 229.869V229.835C378.993 229.4 378.87 229.064 378.625 228.825C378.383 228.587 378.022 228.467 377.541 228.467C377.041 228.467 376.646 228.578 376.358 228.8C376.073 229.019 375.876 229.263 375.766 229.531L374.369 229.213C374.535 228.749 374.777 228.375 375.095 228.089C375.416 227.801 375.786 227.592 376.204 227.463C376.621 227.33 377.06 227.264 377.521 227.264C377.826 227.264 378.149 227.301 378.491 227.374C378.835 227.443 379.157 227.572 379.455 227.761C379.757 227.95 380.004 228.22 380.196 228.572C380.388 228.92 380.484 229.372 380.484 229.929V235H379.032V233.956H378.973C378.877 234.148 378.733 234.337 378.54 234.523C378.348 234.708 378.101 234.862 377.8 234.985C377.498 235.108 377.137 235.169 376.716 235.169ZM377.039 233.976C377.45 233.976 377.801 233.895 378.093 233.732C378.388 233.57 378.612 233.358 378.764 233.096C378.92 232.831 378.998 232.547 378.998 232.246V231.261C378.945 231.314 378.842 231.364 378.689 231.411C378.54 231.454 378.37 231.492 378.177 231.525C377.985 231.555 377.798 231.583 377.616 231.609C377.433 231.633 377.281 231.652 377.158 231.669C376.87 231.705 376.606 231.767 376.368 231.853C376.132 231.939 375.943 232.063 375.801 232.226C375.662 232.385 375.592 232.597 375.592 232.862C375.592 233.23 375.728 233.509 376 233.697C376.272 233.883 376.618 233.976 377.039 233.976ZM386.029 227.364V228.557H381.858V227.364H386.029ZM382.976 225.534H384.463V232.758C384.463 233.046 384.506 233.263 384.592 233.409C384.678 233.552 384.789 233.649 384.925 233.702C385.064 233.752 385.215 233.777 385.377 233.777C385.497 233.777 385.601 233.769 385.691 233.752C385.78 233.736 385.85 233.722 385.9 233.712L386.168 234.94C386.082 234.973 385.959 235.007 385.8 235.04C385.641 235.076 385.442 235.096 385.203 235.099C384.812 235.106 384.448 235.036 384.11 234.891C383.772 234.745 383.498 234.519 383.289 234.214C383.081 233.91 382.976 233.527 382.976 233.066V225.534ZM387.673 235V227.364H389.16V235H387.673ZM388.424 226.185C388.165 226.185 387.943 226.099 387.758 225.927C387.575 225.751 387.484 225.542 387.484 225.3C387.484 225.055 387.575 224.846 387.758 224.674C387.943 224.498 388.165 224.411 388.424 224.411C388.682 224.411 388.903 224.498 389.085 224.674C389.271 224.846 389.363 225.055 389.363 225.3C389.363 225.542 389.271 225.751 389.085 225.927C388.903 226.099 388.682 226.185 388.424 226.185ZM394.376 235.154C393.66 235.154 393.035 234.99 392.502 234.662C391.968 234.334 391.554 233.875 391.259 233.285C390.964 232.695 390.816 232.005 390.816 231.217C390.816 230.424 390.964 229.732 391.259 229.138C391.554 228.545 391.968 228.085 392.502 227.756C393.035 227.428 393.66 227.264 394.376 227.264C395.092 227.264 395.717 227.428 396.25 227.756C396.784 228.085 397.198 228.545 397.493 229.138C397.788 229.732 397.936 230.424 397.936 231.217C397.936 232.005 397.788 232.695 397.493 233.285C397.198 233.875 396.784 234.334 396.25 234.662C395.717 234.99 395.092 235.154 394.376 235.154ZM394.381 233.906C394.845 233.906 395.23 233.784 395.534 233.538C395.839 233.293 396.065 232.967 396.211 232.559C396.36 232.151 396.434 231.702 396.434 231.212C396.434 230.724 396.36 230.277 396.211 229.869C396.065 229.458 395.839 229.129 395.534 228.88C395.23 228.631 394.845 228.507 394.381 228.507C393.914 228.507 393.526 228.631 393.218 228.88C392.913 229.129 392.686 229.458 392.537 229.869C392.391 230.277 392.318 230.724 392.318 231.212C392.318 231.702 392.391 232.151 392.537 232.559C392.686 232.967 392.913 233.293 393.218 233.538C393.526 233.784 393.914 233.906 394.381 233.906ZM401.081 230.466V235H399.595V227.364H401.022V228.607H401.116C401.292 228.202 401.567 227.877 401.942 227.632C402.319 227.387 402.795 227.264 403.368 227.264C403.889 227.264 404.345 227.374 404.736 227.592C405.127 227.808 405.43 228.129 405.645 228.557C405.861 228.984 405.969 229.513 405.969 230.143V235H404.482V230.322C404.482 229.768 404.338 229.336 404.05 229.024C403.761 228.709 403.365 228.552 402.861 228.552C402.517 228.552 402.21 228.626 401.942 228.776C401.676 228.925 401.466 229.143 401.31 229.432C401.158 229.717 401.081 230.062 401.081 230.466ZM417.39 229.228L416.042 229.467C415.986 229.294 415.896 229.13 415.774 228.974C415.654 228.819 415.492 228.691 415.287 228.592C415.081 228.492 414.824 228.442 414.516 228.442C414.095 228.442 413.744 228.537 413.462 228.726C413.18 228.911 413.039 229.152 413.039 229.447C413.039 229.702 413.134 229.907 413.323 230.063C413.512 230.219 413.817 230.347 414.238 230.446L415.451 230.724C416.153 230.887 416.677 231.137 417.022 231.475C417.366 231.813 417.539 232.252 417.539 232.793C417.539 233.25 417.406 233.658 417.141 234.016C416.879 234.37 416.513 234.649 416.042 234.851C415.575 235.053 415.033 235.154 414.417 235.154C413.561 235.154 412.864 234.972 412.324 234.607C411.783 234.239 411.452 233.717 411.329 233.041L412.766 232.822C412.855 233.197 413.039 233.48 413.318 233.673C413.596 233.862 413.959 233.956 414.407 233.956C414.894 233.956 415.283 233.855 415.575 233.653C415.867 233.447 416.012 233.197 416.012 232.902C416.012 232.663 415.923 232.463 415.744 232.3C415.568 232.138 415.298 232.015 414.934 231.933L413.641 231.649C412.928 231.487 412.401 231.228 412.06 230.874C411.722 230.519 411.553 230.07 411.553 229.526C411.553 229.076 411.679 228.681 411.931 228.343C412.183 228.005 412.531 227.741 412.975 227.553C413.419 227.36 413.928 227.264 414.501 227.264C415.326 227.264 415.976 227.443 416.45 227.801C416.924 228.156 417.237 228.631 417.39 229.228ZM422.464 235.154C421.712 235.154 421.064 234.993 420.52 234.672C419.98 234.347 419.563 233.891 419.268 233.305C418.976 232.715 418.83 232.024 418.83 231.232C418.83 230.449 418.976 229.76 419.268 229.163C419.563 228.567 419.974 228.101 420.501 227.766C421.031 227.432 421.651 227.264 422.36 227.264C422.791 227.264 423.208 227.335 423.613 227.478C424.017 227.621 424.38 227.844 424.702 228.149C425.023 228.454 425.277 228.85 425.462 229.337C425.648 229.821 425.741 230.41 425.741 231.102V231.629H419.67V230.516H424.284C424.284 230.125 424.204 229.778 424.045 229.477C423.886 229.172 423.662 228.931 423.374 228.756C423.089 228.58 422.754 228.492 422.37 228.492C421.952 228.492 421.588 228.595 421.276 228.8C420.968 229.003 420.729 229.268 420.56 229.596C420.394 229.921 420.312 230.274 420.312 230.655V231.525C420.312 232.035 420.401 232.469 420.58 232.827C420.762 233.185 421.016 233.459 421.341 233.648C421.666 233.833 422.045 233.926 422.479 233.926C422.761 233.926 423.018 233.886 423.25 233.807C423.482 233.724 423.682 233.601 423.851 233.439C424.02 233.277 424.15 233.076 424.239 232.837L425.646 233.091C425.533 233.505 425.331 233.868 425.04 234.18C424.751 234.488 424.388 234.728 423.951 234.901C423.517 235.07 423.021 235.154 422.464 235.154ZM428.876 230.466V235H427.39V227.364H428.817V228.607H428.911C429.087 228.202 429.362 227.877 429.737 227.632C430.114 227.387 430.59 227.264 431.163 227.264C431.684 227.264 432.139 227.374 432.531 227.592C432.922 227.808 433.225 228.129 433.44 228.557C433.656 228.984 433.763 229.513 433.763 230.143V235H432.277V230.322C432.277 229.768 432.133 229.336 431.844 229.024C431.556 228.709 431.16 228.552 430.656 228.552C430.312 228.552 430.005 228.626 429.737 228.776C429.471 228.925 429.261 229.143 429.105 229.432C428.953 229.717 428.876 230.062 428.876 230.466ZM439.322 227.364V228.557H435.151V227.364H439.322ZM436.269 225.534H437.756V232.758C437.756 233.046 437.799 233.263 437.885 233.409C437.971 233.552 438.082 233.649 438.218 233.702C438.357 233.752 438.508 233.777 438.67 233.777C438.79 233.777 438.894 233.769 438.984 233.752C439.073 233.736 439.143 233.722 439.192 233.712L439.461 234.94C439.375 234.973 439.252 235.007 439.093 235.04C438.934 235.076 438.735 235.096 438.496 235.099C438.105 235.106 437.741 235.036 437.403 234.891C437.065 234.745 436.791 234.519 436.582 234.214C436.374 233.91 436.269 233.527 436.269 233.066V225.534ZM444.175 235.154C443.423 235.154 442.775 234.993 442.231 234.672C441.691 234.347 441.273 233.891 440.979 233.305C440.687 232.715 440.541 232.024 440.541 231.232C440.541 230.449 440.687 229.76 440.979 229.163C441.273 228.567 441.684 228.101 442.211 227.766C442.742 227.432 443.362 227.264 444.071 227.264C444.502 227.264 444.919 227.335 445.324 227.478C445.728 227.621 446.091 227.844 446.412 228.149C446.734 228.454 446.988 228.85 447.173 229.337C447.359 229.821 447.452 230.41 447.452 231.102V231.629H441.381V230.516H445.995C445.995 230.125 445.915 229.778 445.756 229.477C445.597 229.172 445.373 228.931 445.085 228.756C444.8 228.58 444.465 228.492 444.081 228.492C443.663 228.492 443.299 228.595 442.987 228.8C442.679 229.003 442.44 229.268 442.271 229.596C442.105 229.921 442.023 230.274 442.023 230.655V231.525C442.023 232.035 442.112 232.469 442.291 232.827C442.473 233.185 442.727 233.459 443.052 233.648C443.376 233.833 443.756 233.926 444.19 233.926C444.472 233.926 444.729 233.886 444.961 233.807C445.193 233.724 445.393 233.601 445.562 233.439C445.731 233.277 445.861 233.076 445.95 232.837L447.357 233.091C447.244 233.505 447.042 233.868 446.751 234.18C446.462 234.488 446.099 234.728 445.662 234.901C445.228 235.07 444.732 235.154 444.175 235.154ZM450.587 230.466V235H449.101V227.364H450.528V228.607H450.622C450.798 228.202 451.073 227.877 451.447 227.632C451.825 227.387 452.301 227.264 452.874 227.264C453.395 227.264 453.85 227.374 454.241 227.592C454.633 227.808 454.936 228.129 455.151 228.557C455.367 228.984 455.474 229.513 455.474 230.143V235H453.988V230.322C453.988 229.768 453.844 229.336 453.555 229.024C453.267 228.709 452.871 228.552 452.367 228.552C452.022 228.552 451.716 228.626 451.447 228.776C451.182 228.925 450.972 229.143 450.816 229.432C450.664 229.717 450.587 230.062 450.587 230.466ZM460.685 235.154C459.946 235.154 459.309 234.987 458.776 234.652C458.245 234.314 457.838 233.848 457.553 233.255C457.268 232.662 457.125 231.982 457.125 231.217C457.125 230.441 457.271 229.757 457.562 229.163C457.854 228.567 458.265 228.101 458.795 227.766C459.326 227.432 459.951 227.264 460.67 227.264C461.25 227.264 461.767 227.372 462.221 227.587C462.675 227.799 463.041 228.098 463.32 228.482C463.601 228.867 463.769 229.316 463.822 229.83H462.375C462.295 229.472 462.113 229.163 461.828 228.905C461.546 228.646 461.169 228.517 460.695 228.517C460.28 228.517 459.917 228.626 459.606 228.845C459.298 229.061 459.057 229.369 458.885 229.77C458.713 230.168 458.626 230.638 458.626 231.182C458.626 231.739 458.711 232.219 458.88 232.624C459.049 233.028 459.288 233.341 459.596 233.563C459.907 233.785 460.274 233.896 460.695 233.896C460.976 233.896 461.232 233.845 461.46 233.742C461.692 233.636 461.886 233.485 462.042 233.29C462.201 233.094 462.312 232.859 462.375 232.584H463.822C463.769 233.078 463.608 233.518 463.339 233.906C463.071 234.294 462.711 234.599 462.261 234.821C461.813 235.043 461.288 235.154 460.685 235.154ZM468.703 235.154C467.95 235.154 467.302 234.993 466.759 234.672C466.218 234.347 465.801 233.891 465.506 233.305C465.214 232.715 465.068 232.024 465.068 231.232C465.068 230.449 465.214 229.76 465.506 229.163C465.801 228.567 466.212 228.101 466.739 227.766C467.269 227.432 467.889 227.264 468.598 227.264C469.029 227.264 469.447 227.335 469.851 227.478C470.255 227.621 470.618 227.844 470.94 228.149C471.261 228.454 471.515 228.85 471.7 229.337C471.886 229.821 471.979 230.41 471.979 231.102V231.629H465.909V230.516H470.522C470.522 230.125 470.443 229.778 470.284 229.477C470.124 229.172 469.901 228.931 469.612 228.756C469.327 228.58 468.993 228.492 468.608 228.492C468.191 228.492 467.826 228.595 467.514 228.8C467.206 229.003 466.968 229.268 466.798 229.596C466.633 229.921 466.55 230.274 466.55 230.655V231.525C466.55 232.035 466.639 232.469 466.818 232.827C467.001 233.185 467.254 233.459 467.579 233.648C467.904 233.833 468.283 233.926 468.718 233.926C468.999 233.926 469.256 233.886 469.488 233.807C469.72 233.724 469.921 233.601 470.09 233.439C470.259 233.277 470.388 233.076 470.477 232.837L471.884 233.091C471.772 233.505 471.57 233.868 471.278 234.18C470.99 234.488 470.627 234.728 470.189 234.901C469.755 235.07 469.259 235.154 468.703 235.154ZM480.898 227.364V228.557H476.727V227.364H480.898ZM477.845 225.534H479.332V232.758C479.332 233.046 479.375 233.263 479.461 233.409C479.547 233.552 479.658 233.649 479.794 233.702C479.933 233.752 480.084 233.777 480.247 233.777C480.366 233.777 480.47 233.769 480.56 233.752C480.649 233.736 480.719 233.722 480.769 233.712L481.037 234.94C480.951 234.973 480.828 235.007 480.669 235.04C480.51 235.076 480.311 235.096 480.073 235.099C479.682 235.106 479.317 235.036 478.979 234.891C478.641 234.745 478.367 234.519 478.159 234.214C477.95 233.91 477.845 233.527 477.845 233.066V225.534ZM485.677 235.154C484.961 235.154 484.336 234.99 483.803 234.662C483.269 234.334 482.855 233.875 482.56 233.285C482.265 232.695 482.117 232.005 482.117 231.217C482.117 230.424 482.265 229.732 482.56 229.138C482.855 228.545 483.269 228.085 483.803 227.756C484.336 227.428 484.961 227.264 485.677 227.264C486.393 227.264 487.018 227.428 487.551 227.756C488.085 228.085 488.499 228.545 488.794 229.138C489.089 229.732 489.237 230.424 489.237 231.217C489.237 232.005 489.089 232.695 488.794 233.285C488.499 233.875 488.085 234.334 487.551 234.662C487.018 234.99 486.393 235.154 485.677 235.154ZM485.682 233.906C486.146 233.906 486.53 233.784 486.835 233.538C487.14 233.293 487.366 232.967 487.511 232.559C487.661 232.151 487.735 231.702 487.735 231.212C487.735 230.724 487.661 230.277 487.511 229.869C487.366 229.458 487.14 229.129 486.835 228.88C486.53 228.631 486.146 228.507 485.682 228.507C485.214 228.507 484.827 228.631 484.518 228.88C484.214 229.129 483.987 229.458 483.837 229.869C483.692 230.277 483.619 230.724 483.619 231.212C483.619 231.702 483.692 232.151 483.837 232.559C483.987 232.967 484.214 233.293 484.518 233.538C484.827 233.784 485.214 233.906 485.682 233.906ZM497.803 238.023C497.196 238.023 496.674 237.943 496.237 237.784C495.802 237.625 495.448 237.415 495.173 237.153C494.897 236.891 494.692 236.604 494.556 236.293L495.834 235.766C495.923 235.911 496.043 236.066 496.192 236.228C496.344 236.394 496.55 236.535 496.808 236.651C497.07 236.767 497.406 236.825 497.817 236.825C498.381 236.825 498.847 236.687 499.214 236.412C499.582 236.14 499.766 235.706 499.766 235.109V233.608H499.672C499.582 233.77 499.453 233.951 499.284 234.15C499.118 234.349 498.89 234.521 498.598 234.667C498.306 234.813 497.927 234.886 497.46 234.886C496.856 234.886 496.313 234.745 495.829 234.463C495.348 234.178 494.967 233.759 494.685 233.205C494.407 232.648 494.268 231.964 494.268 231.152C494.268 230.34 494.405 229.644 494.68 229.064C494.959 228.484 495.34 228.04 495.824 227.732C496.308 227.42 496.856 227.264 497.469 227.264C497.943 227.264 498.326 227.344 498.618 227.503C498.91 227.659 499.137 227.841 499.299 228.05C499.465 228.259 499.592 228.442 499.682 228.602H499.791V227.364H501.248V235.169C501.248 235.825 501.095 236.364 500.79 236.785C500.486 237.206 500.073 237.517 499.553 237.719C499.036 237.922 498.452 238.023 497.803 238.023ZM497.788 233.653C498.215 233.653 498.576 233.553 498.871 233.354C499.17 233.152 499.395 232.864 499.548 232.489C499.703 232.112 499.781 231.659 499.781 231.132C499.781 230.618 499.705 230.166 499.553 229.775C499.4 229.384 499.176 229.079 498.881 228.86C498.586 228.638 498.222 228.527 497.788 228.527C497.34 228.527 496.967 228.643 496.669 228.875C496.371 229.104 496.145 229.415 495.993 229.81C495.844 230.204 495.769 230.645 495.769 231.132C495.769 231.633 495.845 232.072 495.998 232.45C496.15 232.827 496.376 233.122 496.674 233.335C496.976 233.547 497.347 233.653 497.788 233.653ZM506.533 235.154C505.78 235.154 505.132 234.993 504.589 234.672C504.049 234.347 503.631 233.891 503.336 233.305C503.044 232.715 502.898 232.024 502.898 231.232C502.898 230.449 503.044 229.76 503.336 229.163C503.631 228.567 504.042 228.101 504.569 227.766C505.099 227.432 505.719 227.264 506.428 227.264C506.859 227.264 507.277 227.335 507.681 227.478C508.085 227.621 508.448 227.844 508.77 228.149C509.091 228.454 509.345 228.85 509.531 229.337C509.716 229.821 509.809 230.41 509.809 231.102V231.629H503.739V230.516H508.352C508.352 230.125 508.273 229.778 508.114 229.477C507.955 229.172 507.731 228.931 507.442 228.756C507.157 228.58 506.823 228.492 506.438 228.492C506.021 228.492 505.656 228.595 505.344 228.8C505.036 229.003 504.798 229.268 504.629 229.596C504.463 229.921 504.38 230.274 504.38 230.655V231.525C504.38 232.035 504.469 232.469 504.648 232.827C504.831 233.185 505.084 233.459 505.409 233.648C505.734 233.833 506.113 233.926 506.548 233.926C506.829 233.926 507.086 233.886 507.318 233.807C507.55 233.724 507.751 233.601 507.92 233.439C508.089 233.277 508.218 233.076 508.308 232.837L509.714 233.091C509.602 233.505 509.4 233.868 509.108 234.18C508.82 234.488 508.457 234.728 508.019 234.901C507.585 235.07 507.089 235.154 506.533 235.154ZM515.023 227.364V228.557H510.852V227.364H515.023ZM511.97 225.534H513.457V232.758C513.457 233.046 513.5 233.263 513.586 233.409C513.672 233.552 513.783 233.649 513.919 233.702C514.058 233.752 514.209 233.777 514.372 233.777C514.491 233.777 514.595 233.769 514.685 233.752C514.774 233.736 514.844 233.722 514.894 233.712L515.162 234.94C515.076 234.973 514.953 235.007 514.794 235.04C514.635 235.076 514.436 235.096 514.198 235.099C513.807 235.106 513.442 235.036 513.104 234.891C512.766 234.745 512.492 234.519 512.284 234.214C512.075 233.91 511.97 233.527 511.97 233.066V225.534ZM526.095 229.228L524.747 229.467C524.691 229.294 524.602 229.13 524.479 228.974C524.36 228.819 524.197 228.691 523.992 228.592C523.786 228.492 523.529 228.442 523.221 228.442C522.8 228.442 522.449 228.537 522.167 228.726C521.885 228.911 521.744 229.152 521.744 229.447C521.744 229.702 521.839 229.907 522.028 230.063C522.217 230.219 522.522 230.347 522.943 230.446L524.156 230.724C524.858 230.887 525.382 231.137 525.727 231.475C526.071 231.813 526.244 232.252 526.244 232.793C526.244 233.25 526.111 233.658 525.846 234.016C525.584 234.37 525.218 234.649 524.747 234.851C524.28 235.053 523.738 235.154 523.122 235.154C522.267 235.154 521.569 234.972 521.029 234.607C520.488 234.239 520.157 233.717 520.034 233.041L521.471 232.822C521.561 233.197 521.744 233.48 522.023 233.673C522.301 233.862 522.664 233.956 523.112 233.956C523.599 233.956 523.988 233.855 524.28 233.653C524.572 233.447 524.718 233.197 524.718 232.902C524.718 232.663 524.628 232.463 524.449 232.3C524.273 232.138 524.003 232.015 523.639 231.933L522.346 231.649C521.633 231.487 521.106 231.228 520.765 230.874C520.427 230.519 520.258 230.07 520.258 229.526C520.258 229.076 520.384 228.681 520.636 228.343C520.888 228.005 521.236 227.741 521.68 227.553C522.124 227.36 522.633 227.264 523.206 227.264C524.031 227.264 524.681 227.443 525.155 227.801C525.629 228.156 525.942 228.631 526.095 229.228ZM531.443 227.364V228.557H527.272V227.364H531.443ZM528.39 225.534H529.877V232.758C529.877 233.046 529.92 233.263 530.006 233.409C530.092 233.552 530.203 233.649 530.339 233.702C530.478 233.752 530.629 233.777 530.792 233.777C530.911 233.777 531.015 233.769 531.105 233.752C531.194 233.736 531.264 233.722 531.314 233.712L531.582 234.94C531.496 234.973 531.373 235.007 531.214 235.04C531.055 235.076 530.856 235.096 530.618 235.099C530.226 235.106 529.862 235.036 529.524 234.891C529.186 234.745 528.912 234.519 528.703 234.214C528.495 233.91 528.39 233.527 528.39 233.066V225.534ZM535.309 235.169C534.826 235.169 534.388 235.08 533.997 234.901C533.606 234.718 533.296 234.455 533.067 234.11C532.842 233.765 532.729 233.343 532.729 232.842C532.729 232.411 532.812 232.057 532.978 231.778C533.144 231.5 533.367 231.28 533.649 231.117C533.931 230.955 534.246 230.832 534.594 230.749C534.942 230.666 535.296 230.603 535.657 230.56C536.115 230.507 536.486 230.464 536.771 230.431C537.056 230.395 537.263 230.337 537.393 230.257C537.522 230.178 537.586 230.048 537.586 229.869V229.835C537.586 229.4 537.464 229.064 537.219 228.825C536.977 228.587 536.615 228.467 536.135 228.467C535.634 228.467 535.24 228.578 534.952 228.8C534.666 229.019 534.469 229.263 534.36 229.531L532.963 229.213C533.129 228.749 533.371 228.375 533.689 228.089C534.01 227.801 534.38 227.592 534.797 227.463C535.215 227.33 535.654 227.264 536.115 227.264C536.42 227.264 536.743 227.301 537.084 227.374C537.429 227.443 537.751 227.572 538.049 227.761C538.35 227.95 538.597 228.22 538.79 228.572C538.982 228.92 539.078 229.372 539.078 229.929V235H537.626V233.956H537.567C537.47 234.148 537.326 234.337 537.134 234.523C536.942 234.708 536.695 234.862 536.393 234.985C536.092 235.108 535.73 235.169 535.309 235.169ZM535.633 233.976C536.044 233.976 536.395 233.895 536.687 233.732C536.982 233.57 537.205 233.358 537.358 233.096C537.514 232.831 537.591 232.547 537.591 232.246V231.261C537.538 231.314 537.436 231.364 537.283 231.411C537.134 231.454 536.963 231.492 536.771 231.525C536.579 231.555 536.392 231.583 536.209 231.609C536.027 231.633 535.875 231.652 535.752 231.669C535.464 231.705 535.2 231.767 534.961 231.853C534.726 231.939 534.537 232.063 534.395 232.226C534.256 232.385 534.186 232.597 534.186 232.862C534.186 233.23 534.322 233.509 534.594 233.697C534.865 233.883 535.212 233.976 535.633 233.976ZM541.058 235V227.364H542.495V228.577H542.574C542.713 228.166 542.959 227.843 543.31 227.607C543.665 227.369 544.066 227.249 544.513 227.249C544.606 227.249 544.715 227.253 544.841 227.259C544.971 227.266 545.072 227.274 545.145 227.284V228.706C545.085 228.689 544.979 228.671 544.826 228.651C544.674 228.628 544.521 228.616 544.369 228.616C544.018 228.616 543.704 228.691 543.429 228.84C543.158 228.986 542.942 229.19 542.783 229.452C542.624 229.71 542.544 230.005 542.544 230.337V235H541.058ZM550.447 227.364V228.557H546.276V227.364H550.447ZM547.394 225.534H548.881V232.758C548.881 233.046 548.924 233.263 549.01 233.409C549.096 233.552 549.207 233.649 549.343 233.702C549.482 233.752 549.633 233.777 549.795 233.777C549.915 233.777 550.019 233.769 550.109 233.752C550.198 233.736 550.268 233.722 550.317 233.712L550.586 234.94C550.5 234.973 550.377 235.007 550.218 235.04C550.059 235.076 549.86 235.096 549.621 235.099C549.23 235.106 548.866 235.036 548.528 234.891C548.19 234.745 547.916 234.519 547.707 234.214C547.499 233.91 547.394 233.527 547.394 233.066V225.534ZM555.3 235.154C554.548 235.154 553.9 234.993 553.356 234.672C552.816 234.347 552.398 233.891 552.104 233.305C551.812 232.715 551.666 232.024 551.666 231.232C551.666 230.449 551.812 229.76 552.104 229.163C552.398 228.567 552.809 228.101 553.336 227.766C553.867 227.432 554.487 227.264 555.196 227.264C555.627 227.264 556.044 227.335 556.449 227.478C556.853 227.621 557.216 227.844 557.537 228.149C557.859 228.454 558.113 228.85 558.298 229.337C558.484 229.821 558.577 230.41 558.577 231.102V231.629H552.506V230.516H557.12C557.12 230.125 557.04 229.778 556.881 229.477C556.722 229.172 556.498 228.931 556.21 228.756C555.925 228.58 555.59 228.492 555.206 228.492C554.788 228.492 554.424 228.595 554.112 228.8C553.804 229.003 553.565 229.268 553.396 229.596C553.23 229.921 553.148 230.274 553.148 230.655V231.525C553.148 232.035 553.237 232.469 553.416 232.827C553.598 233.185 553.852 233.459 554.177 233.648C554.501 233.833 554.881 233.926 555.315 233.926C555.597 233.926 555.854 233.886 556.086 233.807C556.318 233.724 556.518 233.601 556.687 233.439C556.856 233.277 556.986 233.076 557.075 232.837L558.482 233.091C558.369 233.505 558.167 233.868 557.876 234.18C557.587 234.488 557.224 234.728 556.787 234.901C556.353 235.07 555.857 235.154 555.3 235.154ZM563.085 235.149C562.468 235.149 561.918 234.992 561.434 234.677C560.953 234.359 560.576 233.906 560.3 233.32C560.029 232.73 559.893 232.022 559.893 231.197C559.893 230.371 560.03 229.665 560.305 229.079C560.584 228.492 560.965 228.043 561.449 227.732C561.933 227.42 562.481 227.264 563.094 227.264C563.568 227.264 563.95 227.344 564.238 227.503C564.53 227.659 564.755 227.841 564.914 228.05C565.076 228.259 565.202 228.442 565.292 228.602H565.381V224.818H566.868V235H565.416V233.812H565.292C565.202 233.974 565.073 234.16 564.904 234.369C564.738 234.577 564.51 234.76 564.218 234.915C563.926 235.071 563.549 235.149 563.085 235.149ZM563.413 233.881C563.84 233.881 564.201 233.769 564.496 233.543C564.795 233.315 565.02 232.998 565.173 232.594C565.328 232.189 565.406 231.719 565.406 231.182C565.406 230.652 565.33 230.187 565.178 229.79C565.025 229.392 564.801 229.082 564.506 228.86C564.211 228.638 563.847 228.527 563.413 228.527C562.965 228.527 562.592 228.643 562.294 228.875C561.996 229.107 561.77 229.424 561.618 229.825C561.469 230.226 561.394 230.678 561.394 231.182C561.394 231.692 561.47 232.151 561.623 232.559C561.775 232.967 562.001 233.29 562.299 233.528C562.601 233.764 562.972 233.881 563.413 233.881Z" fill="#5F6368"/>
<defs>
<filter id="filter0_d_17_6248" x="368.5" y="107" width="157" height="47" filterUnits="userSpaceOnUse" color-interpolation-filters="sRGB">
<feFlood flood-opacity="0" result="BackgroundImageFix"/>
<feColorMatrix in="SourceAlpha" type="matrix" values="0 0 0 0 0 0 0 0 0 0 0 0 0 0 0 0 0 0 127 0" result="hardAlpha"/>
<feOffset dy="3"/>
<feGaussianBlur stdDeviation="3"/>
<feColorMatrix type="matrix" values="0 0 0 0 0 0 0 0 0 0 0 0 0 0 0 0 0 0 0.161 0"/>
<feBlend mode="normal" in2="BackgroundImageFix" result="effect1_dropShadow_17_6248"/>
<feBlend mode="normal" in="SourceGraphic" in2="effect1_dropShadow_17_6248" result="shape"/>
</filter>
<filter id="filter1_d_17_6248" x="325.5" y="150" width="157" height="47" filterUnits="userSpaceOnUse" color-interpolation-filters="sRGB">
<feFlood flood-opacity="0" result="BackgroundImageFix"/>
<feColorMatrix in="SourceAlpha" type="matrix" values="0 0 0 0 0 0 0 0 0 0 0 0 0 0 0 0 0 0 127 0" result="hardAlpha"/>
<feOffset dy="3"/>
<feGaussianBlur stdDeviation="3"/>
<feColorMatrix type="matrix" values="0 0 0 0 0 0 0 0 0 0 0 0 0 0 0 0 0 0 0.161 0"/>
<feBlend mode="normal" in2="BackgroundImageFix" result="effect1_dropShadow_17_6248"/>
<feBlend mode="normal" in="SourceGraphic" in2="effect1_dropShadow_17_6248" result="shape"/>
</filter>
<filter id="filter2_d_17_6248" x="325.5" y="64" width="157" height="47" filterUnits="userSpaceOnUse" color-interpolation-filters="sRGB">
<feFlood flood-opacity="0" result="BackgroundImageFix"/>
<feColorMatrix in="SourceAlpha" type="matrix" values="0 0 0 0 0 0 0 0 0 0 0 0 0 0 0 0 0 0 127 0" result="hardAlpha"/>
<feOffset dy="3"/>
<feGaussianBlur stdDeviation="3"/>
<feColorMatrix type="matrix" values="0 0 0 0 0 0 0 0 0 0 0 0 0 0 0 0 0 0 0.161 0"/>
<feBlend mode="normal" in2="BackgroundImageFix" result="effect1_dropShadow_17_6248"/>
<feBlend mode="normal" in="SourceGraphic" in2="effect1_dropShadow_17_6248" result="shape"/>
</filter>
<linearGradient id="paint0_linear_17_6248" x1="427.5" y1="56" x2="427.5" y2="196" gradientUnits="userSpaceOnUse">
<stop stop-color="#E6DDFF"/>
<stop offset="1" stop-color="#E9E1FF"/>
</linearGradient>
</defs>
</svg>
