<svg width="25" height="24" viewBox="0 0 25 24" fill="none" xmlns="http://www.w3.org/2000/svg">
<path fill-rule="evenodd" clip-rule="evenodd" d="M3.87213 5.17157C2.70056 6.34315 2.70056 8.22876 2.70056 12C2.70056 15.7712 2.70056 17.6569 3.87213 18.8284C5.04371 20 6.92933 20 10.7006 20H14.7006C18.4718 20 20.3574 20 21.529 18.8284C22.7006 17.6569 22.7006 15.7712 22.7006 12C22.7006 8.22876 22.7006 6.34315 21.529 5.17157C20.3574 4 18.4718 4 14.7006 4H10.7006C6.92933 4 5.04371 4 3.87213 5.17157ZM19.2767 7.51986C19.5419 7.83807 19.4989 8.31099 19.1807 8.57617L16.9842 10.4066C16.0979 11.1452 15.3794 11.7439 14.7454 12.1517C14.0849 12.5765 13.4416 12.8449 12.7006 12.8449C11.9595 12.8449 11.3162 12.5765 10.6557 12.1517C10.0217 11.7439 9.30327 11.1452 8.41692 10.4066L6.22042 8.57617C5.90222 8.31099 5.85922 7.83807 6.1244 7.51986C6.38957 7.20165 6.86249 7.15866 7.1807 7.42383L9.3396 9.22291C10.2726 10.0004 10.9203 10.5384 11.4671 10.8901C11.9965 11.2306 12.3555 11.3449 12.7006 11.3449C13.0456 11.3449 13.4046 11.2306 13.934 10.8901C14.4808 10.5384 15.1286 10.0004 16.0615 9.22291L18.2204 7.42383C18.5386 7.15866 19.0116 7.20165 19.2767 7.51986Z" fill="#FFA500"/>
</svg>
