<svg width="200" height="51" viewBox="0 0 200 51" fill="none" xmlns="http://www.w3.org/2000/svg">
<mask id="mask0_17_7272" style="mask-type:luminance" maskUnits="userSpaceOnUse" x="0" y="0" width="74" height="51">
<path d="M23.8226 0.500062C35.535 0.447852 44.3392 33.3584 54.3623 36.938C61.3359 39.4286 67.3302 38.6682 72.9988 22.7956C73.5666 29.1036 62.5952 53.8036 52.3073 50.1293C39.0987 45.4121 21.3148 -13.5519 0.860596 45.9639C0.899258 35.6629 12.9244 0.548676 23.8226 0.500062Z" fill="white"/>
</mask>
<g mask="url(#mask0_17_7272)">
<path d="M73.5667 -13.552H0.860657V53.8035H73.5667V-13.552Z" fill="url(#paint0_linear_17_7272)"/>
</g>
<path fill-rule="evenodd" clip-rule="evenodd" d="M0.860657 45.9639C14.0007 7.73019 26.0388 18.3924 36.4697 32.1573C36.4697 32.1573 22.1286 10.3473 8.77691 18.2378C4.13098 28.5821 0.880747 40.6165 0.860657 45.9639Z" fill="#102770"/>
<path fill-rule="evenodd" clip-rule="evenodd" d="M11.4136 12.8592C11.4136 12.8592 25.9208 -3.20831 39.1268 16.3059C34.3909 8.0363 29.4414 0.47498 23.8224 0.500062C19.6012 0.518913 15.2109 5.79841 11.4136 12.8592Z" fill="#6D4FFF"/>
<path d="M98.2273 32.4624H89.7878L88.3913 36.5H83.9287L91.5485 15.2797H96.4969L104.117 36.5H99.6238L98.2273 32.4624ZM97.0737 29.0623L94.0075 20.1977L90.9414 29.0623H97.0737ZM114.676 23.1728H111.731V36.5H107.42V23.1728H105.508V19.6816H107.42V18.8316C107.42 16.7672 108.007 15.2493 109.181 14.2779C110.355 13.3064 112.126 12.851 114.494 12.9118V16.494C113.462 16.4738 112.743 16.6458 112.338 17.0101C111.934 17.3744 111.731 18.0322 111.731 18.9834V19.6816H114.676V23.1728ZM125.141 23.1728H122.196V36.5H117.886V23.1728H115.973V19.6816H117.886V18.8316C117.886 16.7672 118.473 15.2493 119.646 14.2779C120.82 13.3064 122.591 12.851 124.959 12.9118V16.494C123.927 16.4738 123.208 16.6458 122.804 17.0101C122.399 17.3744 122.196 18.0322 122.196 18.9834V19.6816H125.141V23.1728ZM130.051 17.678C129.302 17.678 128.675 17.4452 128.169 16.9797C127.683 16.494 127.44 15.897 127.44 15.1886C127.44 14.4803 127.683 13.8933 128.169 13.4278C128.675 12.9421 129.302 12.6992 130.051 12.6992C130.8 12.6992 131.417 12.9421 131.903 13.4278C132.409 13.8933 132.662 14.4803 132.662 15.1886C132.662 15.897 132.409 16.494 131.903 16.9797C131.417 17.4452 130.8 17.678 130.051 17.678ZM132.146 19.6816V36.5H127.895V19.6816H132.146ZM140.595 22.2924C141.141 21.4019 141.85 20.7037 142.72 20.1977C143.61 19.6917 144.622 19.4387 145.756 19.4387V23.9014H144.633C143.297 23.9014 142.285 24.2151 141.597 24.8425C140.929 25.4699 140.595 26.5628 140.595 28.1212V36.5H136.345V19.6816H140.595V22.2924Z" fill="#8A5CFF"/>
<path d="M171.721 15.31V36.5H167.471V22.7174L161.794 36.5H158.576L152.869 22.7174V36.5H148.618V15.31H153.445L160.185 31.0659L166.924 15.31H171.721ZM178.078 17.678C177.33 17.678 176.702 17.4452 176.196 16.9797C175.71 16.494 175.468 15.897 175.468 15.1886C175.468 14.4803 175.71 13.8933 176.196 13.4278C176.702 12.9421 177.33 12.6992 178.078 12.6992C178.827 12.6992 179.444 12.9421 179.93 13.4278C180.436 13.8933 180.689 14.4803 180.689 15.1886C180.689 15.897 180.436 16.494 179.93 16.9797C179.444 17.4452 178.827 17.678 178.078 17.678ZM180.173 19.6816V36.5H175.923V19.6816H180.173ZM193.662 36.5L190.201 31.2784L187.135 36.5H182.581L188.076 28.0604L182.52 19.6816H187.317L190.747 24.8728L193.844 19.6816H198.398L192.872 28.0604L198.458 36.5H193.662Z" fill="#1E1E1E"/>
<defs>
<linearGradient id="paint0_linear_17_7272" x1="34.9256" y1="30.6128" x2="37.1782" y2="22.1508" gradientUnits="userSpaceOnUse">
<stop stop-color="#543A94"/>
<stop offset="1" stop-color="#7559FF"/>
</linearGradient>
</defs>
</svg>
