<svg width="20" height="20" viewBox="0 0 20 20" fill="none" xmlns="http://www.w3.org/2000/svg">
<path fill-rule="evenodd" clip-rule="evenodd" d="M11.7492 1.99193C13.017 0.724046 15.0727 0.724046 16.3406 1.99193C17.6085 3.25981 17.6085 5.31545 16.3406 6.58333L10.0122 12.9117C9.65556 13.2684 9.43775 13.4862 9.19498 13.6756C8.90895 13.8987 8.59947 14.0899 8.27202 14.246C7.99409 14.3784 7.70183 14.4758 7.22328 14.6353L4.99607 15.3777L4.46135 15.556C3.98272 15.7155 3.45504 15.5909 3.09829 15.2342C2.74155 14.8775 2.61698 14.3498 2.77652 13.8711L3.69716 11.1092C3.85665 10.6307 3.95405 10.3384 4.08651 10.0605C4.24256 9.73302 4.43383 9.42354 4.65693 9.13752C4.84628 8.89475 5.06412 8.67693 5.42084 8.32025L11.7492 1.99193ZM4.96723 14.0697L4.26276 13.3653L4.86978 11.5442C5.04652 11.014 5.11951 10.7984 5.21491 10.5983C5.33191 10.3528 5.47531 10.1207 5.64257 9.90629C5.77894 9.73145 5.93911 9.56975 6.33431 9.17455L11.2435 4.26541C11.4461 4.77374 11.7889 5.38725 12.3671 5.96541C12.9452 6.54356 13.5588 6.88641 14.0671 7.08904L9.15794 11.9982C8.76275 12.3934 8.60105 12.5536 8.4262 12.6899C8.21176 12.8572 7.97974 13.0006 7.73424 13.1176C7.53407 13.213 7.3185 13.286 6.78829 13.4627L4.96723 14.0697ZM15.0631 6.09302C14.9599 6.07037 14.8309 6.03628 14.6842 5.98539C14.2809 5.84545 13.7503 5.58083 13.251 5.08152C12.7517 4.58221 12.487 4.05165 12.3471 3.64829C12.2962 3.5016 12.2621 3.37257 12.2395 3.26939L12.6331 2.87581C13.4128 2.09608 14.677 2.09608 15.4567 2.87581C16.2364 3.65553 16.2364 4.91972 15.4567 5.69944L15.0631 6.09302ZM2.70815 18.3327C2.70815 17.9875 2.98797 17.7077 3.33315 17.7077H16.6665V18.9577H3.33315C2.98797 18.9577 2.70815 18.6779 2.70815 18.3327Z" fill="#8A5CFF"/>
</svg>
