<svg width="110" height="111" viewBox="0 0 110 111" fill="none" xmlns="http://www.w3.org/2000/svg">
<g filter="url(#filter0_d_17_6245)">
<path d="M60.8429 15.1981C60.7738 15.1981 60.7149 15.1838 60.6665 15.1551C60.6181 15.1265 60.58 15.0764 60.5524 15.0048L59.9504 13.5442L58.4352 12.8568C58.366 12.8282 58.3176 12.7888 58.2899 12.7387C58.2622 12.6885 58.2484 12.6277 58.2484 12.5561C58.2484 12.4845 58.2622 12.4236 58.2899 12.3735C58.3176 12.3234 58.366 12.284 58.4352 12.2554L59.9504 11.5895L60.5524 10.1933C60.58 10.1217 60.6181 10.0716 60.6665 10.043C60.7149 10.0143 60.7738 10 60.8429 10C60.9121 10 60.9709 10.0143 61.0194 10.043C61.0678 10.0716 61.1059 10.1217 61.1335 10.1933L61.7355 11.5895L63.2507 12.2554C63.3199 12.284 63.3683 12.3234 63.396 12.3735C63.4237 12.4236 63.4375 12.4845 63.4375 12.5561C63.4375 12.6277 63.4237 12.6885 63.396 12.7387C63.3683 12.7888 63.3199 12.8282 63.2507 12.8568L61.7355 13.5442L61.1335 15.0048C61.1059 15.0764 61.0678 15.1265 61.0194 15.1551C60.9709 15.1838 60.9121 15.1981 60.8429 15.1981ZM60.8429 28C60.7876 28 60.7322 27.9857 60.6769 27.957C60.6215 27.9284 60.58 27.8783 60.5524 27.8067L59.9504 26.4105L58.456 25.7446C58.3868 25.716 58.3383 25.6766 58.3107 25.6265C58.283 25.5764 58.2691 25.5155 58.2691 25.4439C58.2691 25.3723 58.283 25.3115 58.3107 25.2613C58.3383 25.2112 58.3868 25.1718 58.456 25.1432L59.9504 24.4773L60.5524 22.9952C60.58 22.9236 60.6181 22.8735 60.6665 22.8449C60.7149 22.8162 60.7738 22.8019 60.8429 22.8019C60.9121 22.8019 60.9709 22.8162 61.0194 22.8449C61.0678 22.8735 61.1059 22.9236 61.1335 22.9952L61.7355 24.4773L63.2299 25.1432C63.2991 25.1718 63.3476 25.2112 63.3752 25.2613C63.4029 25.3115 63.4167 25.3723 63.4167 25.4439C63.4167 25.5155 63.4029 25.5764 63.3752 25.6265C63.3476 25.6766 63.2991 25.716 63.2299 25.7446L61.7355 26.4105L61.1335 27.8067C61.1059 27.8783 61.0643 27.9284 61.009 27.957C60.9536 27.9857 60.8983 28 60.8429 28ZM51.7309 24.284C51.6202 24.284 51.5129 24.2518 51.4091 24.1874C51.3054 24.1229 51.2258 24.0334 51.1704 23.9189L49.8213 20.9332L46.9154 19.58C46.8047 19.5227 46.7182 19.4403 46.6559 19.3329C46.5936 19.2255 46.5625 19.1146 46.5625 19C46.5625 18.8854 46.5936 18.7745 46.6559 18.6671C46.7182 18.5597 46.8047 18.4773 46.9154 18.42L49.8213 17.0668L51.1704 14.1026C51.2258 13.9737 51.3054 13.8771 51.4091 13.8126C51.5129 13.7482 51.6202 13.716 51.7309 13.716C51.8416 13.716 51.9488 13.7482 52.0526 13.8126C52.1564 13.8771 52.2359 13.9666 52.2913 14.0811L53.6612 17.0668L56.5464 18.42C56.6709 18.4773 56.7643 18.5597 56.8266 18.6671C56.8888 18.7745 56.92 18.8854 56.92 19C56.92 19.1146 56.8888 19.2255 56.8266 19.3329C56.7643 19.4403 56.6709 19.5227 56.5464 19.58L53.6612 20.9332L52.2913 23.9189C52.2359 24.0477 52.1564 24.1408 52.0526 24.1981C51.9488 24.2554 51.8416 24.284 51.7309 24.284Z" fill="white"/>
</g>
<defs>
<filter id="filter0_d_17_6245" x="0.493744" y="0.493748" width="109.013" height="110.138" filterUnits="userSpaceOnUse" color-interpolation-filters="sRGB">
<feFlood flood-opacity="0" result="BackgroundImageFix"/>
<feColorMatrix in="SourceAlpha" type="matrix" values="0 0 0 0 0 0 0 0 0 0 0 0 0 0 0 0 0 0 127 0" result="hardAlpha"/>
<feOffset dy="36.5625"/>
<feGaussianBlur stdDeviation="23.0344"/>
<feComposite in2="hardAlpha" operator="out"/>
<feColorMatrix type="matrix" values="0 0 0 0 0.262745 0 0 0 0 0.0941176 0 0 0 0 1 0 0 0 0.28 0"/>
<feBlend mode="normal" in2="BackgroundImageFix" result="effect1_dropShadow_17_6245"/>
<feBlend mode="normal" in="SourceGraphic" in2="effect1_dropShadow_17_6245" result="shape"/>
</filter>
</defs>
</svg>
